<svg width="89" height="18" viewBox="0 0 89 18" fill="none" xmlns="http://www.w3.org/2000/svg">
<path d="M16.6907 8.19379V9.10575C16.6848 9.16829 16.6777 9.23072 16.6733 9.29338C16.6437 9.72282 16.5784 10.1471 16.4765 10.565C16.0028 12.5053 14.9797 14.0927 13.3905 15.3029C12.0174 16.3485 10.4575 16.902 8.73491 16.9899C8.39315 17.0074 8.04994 17.0021 7.7074 16.9742C7.26158 16.9378 6.82089 16.8724 6.38709 16.7646C4.60183 16.3207 3.10936 15.4007 1.93295 13.9858C0.73328 12.5429 0.101839 10.8735 0.00869172 9.00126C-0.00733357 8.67787 -0.000767648 8.35337 0.0248283 8.02932C0.0572127 7.62058 0.113858 7.21595 0.206003 6.81678C0.609084 5.07165 1.4759 3.59815 2.81156 2.40554C3.75694 1.56146 4.84499 0.970546 6.06347 0.621452C6.56315 0.478343 7.07184 0.382306 7.58999 0.337682C7.70239 0.328 7.81479 0.318541 7.92719 0.309082C8.20897 0.309082 8.49063 0.309082 8.77241 0.309082C8.7851 0.311419 8.79778 0.315203 8.81058 0.315759C9.19786 0.334009 9.58135 0.38264 9.96118 0.459647C11.8027 0.83289 13.3526 1.71881 14.6029 3.12019C15.435 4.05274 16.0194 5.12617 16.3693 6.32614C16.5169 6.83225 16.6159 7.34793 16.6622 7.87341C16.6715 7.98024 16.6813 8.08707 16.6909 8.19379H16.6907ZM15.7737 8.65194C15.752 4.48485 12.4024 1.23629 8.36032 1.23195C4.25873 1.2275 0.936601 4.54161 0.931704 8.64371C0.926919 12.6869 4.17182 16.0651 8.34652 16.0686C12.4602 16.072 15.7515 12.7714 15.7737 8.65194Z" fill="#FFD78E"/>
<path d="M8.71919 3.58202C9.58441 3.57737 10.329 3.6422 11.0661 3.78008C11.4 3.84259 11.7307 3.92073 12.0588 4.00928C12.739 4.19293 13.3907 4.44785 14.0246 4.74842C14.0716 4.7707 14.0829 4.7922 14.064 4.84108C13.4921 6.31659 12.7516 7.703 11.7767 8.96538C11.4197 9.42766 11.0271 9.85958 10.5891 10.251C10.4805 10.3481 10.5056 10.341 10.4062 10.2557C10.1073 9.99945 9.82258 9.72968 9.5835 9.41758C9.50968 9.32127 9.4463 9.21897 9.39292 9.11024C9.36884 9.06114 9.37532 9.02878 9.41404 8.98866C10.0435 8.33519 10.6217 7.64138 11.1281 6.89204C11.3659 6.54025 11.5814 6.17617 11.7585 5.79125C11.7879 5.72719 11.7867 5.72375 11.717 5.70424C11.295 5.58599 10.8656 5.5012 10.4321 5.43448C10.0661 5.37817 9.6981 5.33794 9.32841 5.31511C8.92078 5.28995 8.51259 5.2823 8.10383 5.29716C7.64998 5.31356 7.19885 5.35346 6.75045 5.42306C5.90579 5.55407 5.09099 5.78338 4.31049 6.12663C4.25757 6.1499 4.24996 6.17916 4.25757 6.23026C4.3967 7.16513 4.69756 8.05256 5.08906 8.91251C5.65194 10.1486 6.40473 11.2659 7.31947 12.2802C8.10269 13.1485 8.98336 13.912 9.94581 14.5863C9.95501 14.5927 9.96375 14.6 9.97364 14.6054C10.0209 14.6313 10.0112 14.6528 9.97364 14.6818C9.62632 14.9495 9.28003 15.2183 8.93362 15.487C8.85957 15.5444 8.78336 15.5995 8.71271 15.6607C8.66842 15.699 8.63446 15.6999 8.58426 15.6688C8.32848 15.5102 8.08338 15.3375 7.84522 15.1549C6.72865 14.2995 5.79107 13.2819 4.99036 12.142C3.93399 10.6382 3.18802 8.99575 2.71043 7.23573C2.53427 6.58658 2.3973 5.92901 2.29361 5.26501C2.28429 5.20561 2.29758 5.17324 2.35505 5.14354C3.13827 4.73856 3.95966 4.42623 4.80705 4.17653C5.53201 3.96284 6.26969 3.80446 7.01986 3.70294C7.33424 3.66038 7.64998 3.63034 7.96686 3.60873C8.25579 3.589 8.54485 3.58723 8.7193 3.58224L8.71919 3.58202Z" fill="#FFD78E"/>
<path d="M14.7273 5.21826C14.7119 5.45338 14.6764 5.68541 14.6373 5.91689C14.5284 6.56264 14.3794 7.19879 14.2013 7.82854C13.9322 8.7805 13.5796 9.69935 13.133 10.5804C12.7485 11.3388 12.2946 12.0514 11.7524 12.7054C11.4576 13.061 11.1365 13.3906 10.7924 13.6977C10.7512 13.7345 10.7222 13.7376 10.6761 13.7041C10.1758 13.3399 9.68773 12.9599 9.21764 12.5562C8.8254 12.2192 8.44211 11.8725 8.08502 11.4973C7.89332 11.296 7.71395 11.0835 7.54835 10.8593C7.52247 10.8242 7.5169 10.7998 7.55184 10.7659C7.92847 10.4008 8.3039 10.0346 8.67901 9.66811C8.70521 9.6425 8.72355 9.6383 8.74986 9.6691C9.0587 10.0308 9.3778 10.3833 9.70072 10.7321C9.93914 10.9898 10.178 11.2473 10.4434 11.4777C10.5047 11.531 10.5081 11.5321 10.5688 11.4737C10.7756 11.2747 10.9736 11.0667 11.1683 10.8556C11.4236 10.5788 11.6727 10.2962 11.9146 10.0071C12.2718 9.58013 12.6054 9.13506 12.9264 8.67994C13.2784 8.181 13.6027 7.66451 13.8918 7.12594C14.2167 6.52092 14.5052 5.89912 14.7166 5.24299C14.7193 5.23449 14.7236 5.22643 14.7272 5.21826H14.7273Z" fill="#FFD78E"/>
<path d="M88.3637 2.69357C88.2315 2.89088 88.0986 3.08766 87.9681 3.28605C87.9333 3.339 87.906 3.39732 87.8687 3.4653C87.1554 3.20931 86.4723 2.89393 85.7783 2.5603C85.7704 2.66441 85.7641 2.74473 85.7572 2.83418H80.1893C80.1823 2.77693 80.1761 2.72541 80.1693 2.67085C79.4855 2.98015 78.8042 3.2882 78.115 3.6C77.9287 3.34455 77.7547 3.10555 77.5637 2.84348C77.6354 2.81611 77.6944 2.79142 77.7547 2.77121C78.6472 2.47103 79.5127 2.10234 80.3408 1.63759C81.1103 1.20593 81.8293 0.6961 82.4853 0.0882368C82.5288 0.0479869 82.5899 0.00594805 82.6435 0.00469583C82.981 -0.00281749 83.3187 0.000939165 83.6821 0.000939165C83.646 0.060688 83.6217 0.101296 83.5912 0.151742C83.6098 0.173388 83.6289 0.20201 83.6536 0.223119C84.2476 0.729195 84.8798 1.17391 85.5547 1.55065C86.4056 2.0256 87.3007 2.37604 88.2344 2.61808C88.2779 2.62935 88.3205 2.64438 88.3635 2.65761V2.69339L88.3637 2.69357ZM84.9592 2.13597C84.2764 1.69358 83.6178 1.23026 82.9949 0.69288C82.398 1.2299 81.7611 1.69197 81.1055 2.13597H84.9592Z" fill="#FFD78E"/>
<path d="M69.0006 0C69.0205 0.0469965 69.038 0.0952115 69.0608 0.140467C69.2295 0.475187 69.3995 0.80921 69.5763 1.15786H73.9636V2.93345H73.1598V1.88021H64.628V2.93868C64.3488 2.94999 64.0898 2.94372 63.8182 2.94372V1.15733H68.5346C68.3942 0.875876 68.2686 0.624184 68.1343 0.355607C68.1949 0.328976 68.2501 0.303911 68.3057 0.280239C68.5259 0.186594 68.7461 0.0932968 68.9663 0C68.9778 0 68.9891 0 69.0006 0Z" fill="#FFD78E"/>
<path d="M23.6253 17.9997C23.5954 17.9884 23.5664 17.973 23.5353 17.9664C22.6902 17.7817 22.1775 17.2678 21.9946 16.4619C21.8806 15.9592 21.9062 15.45 22.1116 14.9664C22.4315 14.2133 23.0312 13.8232 23.8608 13.7576C24.1675 13.7333 24.4763 13.739 24.7734 13.8328C25.5495 14.0779 25.9883 14.6091 26.1339 15.3708C26.2183 15.8117 26.1933 16.254 26.0425 16.6813C25.7949 17.3829 25.2916 17.8118 24.5399 17.9668C24.5025 17.9746 24.4666 17.9887 24.43 17.9999H23.6251L23.6253 17.9997ZM24.077 14.3621C23.4501 14.3616 22.9732 14.6908 22.7788 15.2697C22.6404 15.6817 22.642 16.099 22.7798 16.5108C22.9608 17.0524 23.3823 17.3695 23.9685 17.3979C24.8073 17.4384 25.2519 16.9593 25.3767 16.3715C25.4473 16.0387 25.4456 15.7073 25.3723 15.3759C25.2289 14.7271 24.7623 14.3625 24.077 14.3621Z" fill="#FFD78E"/>
<path d="M79.1163 17.9997C79.0822 17.9872 79.0491 17.9709 79.0141 17.9627C78.4365 17.8264 78.0857 17.4578 77.9581 16.8729C77.9187 16.6923 77.8967 16.5043 77.8951 16.3194C77.8883 15.5299 77.8917 14.7403 77.8922 13.9508C77.8922 13.7725 77.9151 13.7493 78.0849 13.7473C78.1925 13.746 78.3 13.7455 78.4074 13.7475C78.556 13.7501 78.5822 13.7779 78.5853 13.9338C78.587 14.0216 78.5856 14.1093 78.5856 14.1971C78.5856 14.8605 78.5849 15.5239 78.5859 16.1874C78.5862 16.396 78.5964 16.6032 78.6592 16.8049C78.7519 17.1022 78.9422 17.2897 79.242 17.3577C79.4389 17.4023 79.637 17.4035 79.8339 17.3605C80.1967 17.2811 80.3768 17.0279 80.4372 16.6743C80.4619 16.5295 80.4716 16.3803 80.4722 16.233C80.4756 15.4872 80.4739 14.7416 80.4739 13.9959C80.4739 13.9575 80.4716 13.9188 80.4748 13.8808C80.4827 13.7914 80.517 13.7524 80.6063 13.7491C80.7458 13.7442 80.8859 13.7442 81.0256 13.7488C81.1251 13.7521 81.154 13.7871 81.1624 13.8917C81.1645 13.919 81.1634 13.9465 81.1634 13.9738C81.1634 14.7196 81.164 15.4652 81.1629 16.2109C81.1625 16.4416 81.1448 16.6705 81.085 16.8948C80.9292 17.4797 80.5611 17.8351 79.9809 17.964C79.9396 17.9732 79.8993 17.9877 79.8585 17.9999H79.1158L79.1163 17.9997Z" fill="#FFD78E"/>
<path d="M69.562 17.9995C69.4832 17.9777 69.4047 17.9544 69.3251 17.9347C68.4957 17.7291 67.9007 17.0782 67.7813 16.2501C67.7235 15.8486 67.729 15.4497 67.8471 15.0596C68.1112 14.188 68.7153 13.663 69.6159 13.4795C70.1089 13.379 70.6093 13.4039 71.0982 13.5405C71.1772 13.5626 71.2532 13.5949 71.3422 13.6266C71.3422 13.8166 71.3456 14.0018 71.341 14.1868C71.3385 14.2897 71.2591 14.3357 71.1572 14.3009C71.1181 14.2874 71.0821 14.2662 71.0437 14.2507C70.6434 14.0882 70.2275 14.0425 69.8036 14.1225C69.1281 14.25 68.6571 14.7489 68.5654 15.4166C68.5199 15.7484 68.5224 16.0797 68.6388 16.3974C68.8443 16.9585 69.2552 17.2796 69.8646 17.3424C70.2987 17.3872 70.7171 17.3248 71.1122 17.1341C71.2707 17.0576 71.3403 17.1028 71.3424 17.2782C71.3438 17.3884 71.336 17.4994 71.3445 17.609C71.3524 17.7077 71.3112 17.7626 71.2195 17.7896C71.0209 17.8476 70.8223 17.9054 70.6238 17.9631C70.5792 17.976 70.5342 17.9877 70.4892 18H69.562V17.9995Z" fill="#FFD78E"/>
<path d="M69.1882 5.07512H72.9163C72.952 5.2105 72.9581 9.28586 72.9233 9.48209C72.8934 9.48486 72.8609 9.49041 72.8281 9.49058C72.6014 9.49128 72.3749 9.49093 72.1323 9.49093C72.1265 9.40755 72.1214 9.33492 72.1161 9.26055C72.1125 9.25743 72.1084 9.25345 72.1041 9.24963C72.1 9.24582 72.0959 9.23923 72.0915 9.23889C72.0463 9.23507 72.0011 9.22987 71.9561 9.22987C69.9281 9.22953 67.9003 9.22953 65.8568 9.22953C65.8496 9.31551 65.8432 9.39264 65.8358 9.48001H65.0269C65.0255 9.25969 65.0235 9.03729 65.0228 8.81471C65.0221 8.58364 65.0228 8.35257 65.0228 8.1215V6.75259C65.0228 6.52828 65.0228 6.3038 65.0228 6.05643C64.6236 6.13825 64.2429 6.21626 63.8578 6.29513C63.7355 6.05366 63.617 5.81999 63.4909 5.57106C65.1896 5.24673 66.8716 4.89658 68.5398 4.46598V2.99255C67.5282 2.99133 66.5213 2.99272 65.5044 2.99168V2.29102H72.7051V2.98891H69.322V4.25329C70.4549 3.94872 71.5589 3.5925 72.6597 3.17751C72.7674 3.39679 72.8702 3.60636 72.9818 3.83362C71.7266 4.30668 70.4547 4.67799 69.1782 5.03525C69.1816 5.04843 69.1848 5.06177 69.1882 5.07495V5.07512ZM72.114 6.86336C71.8643 6.82973 65.9766 6.84065 65.8531 6.87376V7.45048H72.114V6.86336ZM72.1139 8.02685C71.8836 7.99045 65.9764 8.00085 65.8466 8.03829C65.8476 8.22863 65.8372 8.42173 65.8524 8.61085H72.114V8.02685H72.1139ZM65.8522 6.28351C66.1997 6.31801 71.988 6.30328 72.1125 6.2693V5.67039H71.903C70.3191 5.67039 68.7352 5.6742 67.1512 5.66727C66.8136 5.66571 66.4842 5.69102 66.1601 5.78792C66.0586 5.81825 65.954 5.83836 65.8522 5.86298V6.28351Z" fill="#FFD78E"/>
<path d="M24.5792 3.56071C25.0849 3.86352 25.5832 4.16186 26.0977 4.46983C26.5239 4.10539 26.8842 3.6893 27.1529 3.16063H24.1321C23.7667 4.55229 23.0055 5.64855 21.8433 6.45765C21.7483 6.33439 21.6659 6.21922 21.5752 6.1118C21.4845 6.00438 21.3853 5.90436 21.2727 5.78265C22.0064 5.31285 22.5968 4.70551 22.9923 3.91189C23.383 3.12826 23.5494 2.29093 23.5694 1.39747H21.8749V0.685796C21.9923 0.650849 29.5879 0.641037 29.7927 0.678049C29.6369 1.27507 29.4813 1.87088 29.3197 2.48993H31.4154C31.4154 2.64573 31.4224 2.78173 31.4142 2.91669C31.3758 3.5521 31.337 4.18751 31.2893 4.82222C31.2778 4.97492 31.2439 5.12865 31.1991 5.27515C31.0538 5.75063 30.7305 6.02814 30.2634 6.12919C30.15 6.15381 30.0323 6.16792 29.9166 6.16896C29.4945 6.1724 29.0723 6.16844 28.65 6.16637C28.6119 6.1662 28.5737 6.15932 28.528 6.15501C28.4714 5.87269 28.4156 5.59346 28.3567 5.30011C28.3997 5.29701 28.4354 5.29065 28.4708 5.29237C28.859 5.31061 29.2472 5.33058 29.6354 5.349C30.1437 5.37311 30.4622 5.12486 30.496 4.53559C30.5187 4.14068 30.5509 3.74628 30.5784 3.35154C30.5804 3.32366 30.5787 3.29542 30.5787 3.24774H28.3027C28.4651 2.62266 28.621 2.02289 28.7811 1.40711H24.3809C24.3535 1.75313 24.3265 2.09347 24.2983 2.44844H28.016C28.019 2.56809 28.0137 2.67517 28.0259 2.78018C28.0554 3.03238 27.9742 3.24894 27.8551 3.46292C27.596 3.92807 27.2915 4.35638 26.9234 4.73563C26.8804 4.78005 26.8314 4.81826 26.7635 4.87869C27.2096 5.15861 27.6325 5.42406 28.0707 5.69899C27.9018 5.92278 27.7427 6.13367 27.5715 6.36073C27.0945 6.04707 26.6236 5.73755 26.166 5.43663C25.7858 5.65268 25.4223 5.87096 25.0483 6.06842C24.673 6.26657 24.277 6.41565 23.8698 6.54545C23.7269 6.31614 23.5871 6.09183 23.4369 5.85082C24.1256 5.62496 24.7894 5.35951 25.4265 4.95667C24.9852 4.67555 24.5633 4.407 24.1211 4.12536C24.2752 3.93548 24.4224 3.7542 24.5792 3.56105V3.56071Z" fill="#FFD78E"/>
<path d="M50.7273 4.58179H58.875C58.9089 4.70344 58.9233 8.81355 58.8911 9.11367C58.7705 9.15388 58.2346 9.16042 58.05 9.12205C58.0451 9.04245 58.0401 8.96051 58.0344 8.86701H51.5826C51.5784 8.95699 51.5741 9.04865 51.5687 9.1636H50.7273V4.58179ZM58.0316 6.40778C57.8392 6.37024 51.7092 6.37711 51.5881 6.4123V7.02728H58.0316V6.40778ZM58.0339 5.21486C57.8681 5.17582 51.7172 5.17967 51.5772 5.21955C51.5788 5.42047 51.5651 5.62423 51.585 5.82447C51.9148 5.86117 57.9085 5.84575 58.0339 5.80872V5.21503V5.21486ZM51.5845 8.22254H58.0301V7.59734H51.5845V8.22254Z" fill="#FFD78E"/>
<path d="M30.5902 6.57142V9.6504C30.9806 9.65319 31.36 9.6558 31.7454 9.6586V10.441C31.621 10.478 21.4609 10.4855 21.2727 10.448V9.65755H22.4757V6.58154C22.611 6.54019 30.3776 6.53112 30.5902 6.57125V6.57142ZM28.1499 7.34387V9.63225C28.3469 9.66941 29.66 9.66191 29.779 9.62544V7.34387H28.1499ZM23.2879 7.34457V9.63295C23.4849 9.66976 24.7977 9.66191 24.9167 9.62492C24.9465 9.34539 24.9347 7.47718 24.9005 7.34457H23.2881H23.2879ZM27.3383 9.64464C27.374 9.44101 27.3662 7.47072 27.3315 7.34998H25.721V9.64464H27.3383Z" fill="#FFD78E"/>
<path d="M55.2714 2.96932V3.61275C55.6826 3.63074 56.0924 3.61835 56.5017 3.62073C56.9141 3.62293 57.3265 3.62124 57.7391 3.62124H58.9764C59.3871 3.62124 59.7979 3.62124 60.2182 3.62124V4.25466H49.4182V3.62531C49.6471 3.62395 49.8791 3.62209 50.1113 3.62141C50.3518 3.62073 50.5924 3.62141 50.833 3.62141H53.6685C53.9017 3.62141 54.1349 3.62141 54.3767 3.62141V2.97033H51.5125C51.5063 3.05314 51.5001 3.13578 51.492 3.24369C51.3601 3.24539 51.2256 3.2476 51.091 3.24845C50.9599 3.24929 50.8289 3.24861 50.6855 3.24861V0.972659H54.3691C54.4071 0.75801 54.3686 0.55473 54.3959 0.331258C54.5352 0.33007 54.6759 0.328373 54.8164 0.327694C54.9531 0.327016 55.09 0.327694 55.2506 0.327694C55.2565 0.542004 55.262 0.746811 55.268 0.965871H58.9313V3.23775H58.1162C58.1097 3.14562 58.1036 3.06315 58.0969 2.96932H55.2714ZM51.5106 2.30874C51.6975 2.34353 54.2487 2.33759 54.3734 2.30399V1.59624H51.5106V2.30874ZM58.1061 1.59285H55.2721V2.32028H58.1061C58.1061 2.13125 58.1061 1.9519 58.1061 1.77254C58.1061 1.71723 58.1061 1.66208 58.1061 1.59268V1.59285Z" fill="#FFD78E"/>
<path d="M41.954 7.94526C42.5712 8.39639 43.2396 8.7551 43.9465 9.04344C44.649 9.3299 45.3756 9.53488 46.1455 9.684C46.0396 9.8403 45.9439 9.97661 45.8538 10.1165C45.7653 10.2542 45.6823 10.3956 45.5928 10.5422C43.9541 10.0634 42.4648 9.32102 41.1889 8.14153C41.1443 8.30107 41.1718 8.44661 41.1669 8.58941C41.1618 8.73734 41.1657 8.88543 41.1657 9.03353V10.8H40.3588C40.3337 10.5928 40.3504 10.3842 40.3475 10.1766C40.3444 9.96039 40.3468 9.74396 40.3468 9.52754V8.23223C40.1692 8.33592 40.0343 8.46232 39.883 8.56327C39.7276 8.66696 39.5749 8.77492 39.418 8.87638C39.2611 8.97768 39.1019 9.07573 38.9411 9.17053C38.7803 9.26533 38.6173 9.35655 38.453 9.4452C38.2837 9.53642 38.1129 9.62456 37.9409 9.71065C37.7741 9.79418 37.606 9.87515 37.4367 9.95372C37.2675 10.0321 37.0967 10.1075 36.9257 10.1818C36.7547 10.2561 36.583 10.3294 36.4105 10.3999C36.2386 10.4701 36.0653 10.5366 35.8955 10.6033C35.7109 10.334 35.5324 10.0735 35.3455 9.80067C35.3757 9.78837 35.4126 9.76941 35.4518 9.7578C36.4666 9.45699 37.4587 9.09588 38.3979 8.60137C38.7329 8.42491 39.0554 8.22471 39.383 8.03408C39.4302 8.00658 39.4728 7.97139 39.5433 7.92134C39.3316 7.88615 39.1482 7.90682 38.9666 7.90307C38.7801 7.89931 38.5935 7.90221 38.4071 7.90221H35.5857V7.18666C35.9036 7.1788 36.2178 7.1841 36.5318 7.18307C36.8484 7.18205 37.1647 7.1829 37.4813 7.1829H40.3446V6.54541H41.1648V7.18017H46.0131C46.0231 7.42085 46.0179 7.64564 46.0165 7.89487C45.7417 7.91007 45.473 7.90016 45.2048 7.90187C44.9335 7.90375 44.6622 7.90221 44.391 7.90221H41.9678L41.954 7.94543V7.94526Z" fill="#FFD78E"/>
<path d="M78.5456 3.27271H87.3818V6.83683H86.5444C86.5374 6.73631 86.531 6.64433 86.5239 6.54363H79.4003C79.3944 6.65198 79.3891 6.75055 79.3832 6.85569C79.3444 6.86192 79.3115 6.8717 79.2785 6.87188C79.0383 6.87313 78.7983 6.87259 78.5455 6.87259V3.27271H78.5456ZM82.5321 5.84764C82.5664 5.537 82.5528 4.08079 82.515 3.95144H79.401V5.84764H82.5321ZM86.5217 5.8471V3.95109H83.3935V5.8471H86.5217Z" fill="#FFD78E"/>
<path d="M79.5473 7.19995H86.6932C86.7339 7.32334 86.7406 10.5995 86.6999 10.7747H85.8902V10.3945C85.7533 10.3534 80.6665 10.3392 80.3842 10.3756V10.8H79.5614C79.5253 10.6708 79.5136 7.48478 79.5473 7.20012V7.19995ZM80.3885 8.46563H85.8688V7.81014C85.6073 7.77867 80.5129 7.79037 80.3885 7.82216V8.46563ZM85.8739 9.07598C85.6183 9.0399 80.508 9.05193 80.3919 9.08553V9.7341C80.702 9.76755 85.7477 9.75305 85.8739 9.71829V9.07614V9.07598Z" fill="#FFD78E"/>
<path d="M38.8802 6.62138V1.29764H40.1404C40.2178 1.00729 40.2903 0.735043 40.3687 0.441895C40.6828 0.444528 40.9905 0.484361 41.3174 0.510038C41.2827 0.779813 41.1455 1.02259 41.0894 1.29797H42.8564C42.8564 3.0748 42.8564 4.83369 42.8564 6.59274C42.7114 6.63372 42.1564 6.6408 41.9035 6.60048V5.99393H39.8368V6.62352C39.5071 6.62632 39.2032 6.62813 38.88 6.62138H38.8802ZM39.8458 5.3069H41.8882V3.97761H39.8458V5.3069ZM39.8471 3.29223H41.8856V1.97068H39.8471V3.29223Z" fill="#FFD78E"/>
<path d="M45.7432 6.62735C45.6984 6.472 45.6601 6.33891 45.6164 6.18727C44.9075 6.23618 44.2011 6.29438 43.4874 6.44821C43.4337 6.20312 43.3787 5.96495 43.3326 5.72475C43.3261 5.69118 43.3584 5.64243 43.3833 5.60988C43.8077 5.05577 44.1701 4.45645 44.5154 3.84482C44.5419 3.79793 44.5646 3.74884 44.6021 3.67479C44.1898 3.68255 43.8022 3.73012 43.4053 3.77094C43.3674 3.54137 43.3299 3.32698 43.2989 3.11174C43.2942 3.07818 43.3119 3.03449 43.3314 3.0043C43.8256 2.2336 44.1837 1.39223 44.4711 0.514089C44.4778 0.493679 44.4911 0.475799 44.5093 0.441895C44.7657 0.516619 45.0219 0.591175 45.3051 0.673491C44.9143 1.44958 44.5341 2.20459 44.1417 2.98372C44.4275 2.98945 44.7015 2.95184 44.9861 2.95555C45.1366 2.6634 45.2853 2.37428 45.4411 2.07167C45.666 2.17895 45.8851 2.2837 46.1219 2.39671C46.0941 2.45929 46.0749 2.5153 46.0463 2.56522C45.7142 3.14497 45.3873 3.72827 45.0454 4.30144C44.8165 4.68518 44.5656 5.05374 44.3248 5.42956C44.296 5.47443 44.2699 5.52115 44.2286 5.59014C44.6347 5.55388 45.0148 5.51997 45.4117 5.48455C45.3133 5.17182 45.22 4.87545 45.1215 4.56289C45.3269 4.48226 45.5263 4.40416 45.7351 4.32218C45.9976 4.9996 46.1996 5.67718 46.3909 6.38024C46.1828 6.47554 45.9696 6.54385 45.7428 6.62735H45.7432Z" fill="#FFD78E"/>
<path d="M38.3149 2.40285C37.8151 3.52651 37.2175 4.54272 36.6088 5.5983C36.9433 5.56198 37.2479 5.52903 37.5729 5.49372C37.4831 5.18252 37.3979 4.88687 37.3063 4.56908C37.4827 4.4868 37.6593 4.40436 37.834 4.32276C37.9479 4.52093 38.3671 5.95934 38.4382 6.39708C38.2567 6.47091 38.0725 6.54575 37.8715 6.62735C37.8284 6.47969 37.7876 6.33964 37.742 6.18319C37.1484 6.23269 36.5556 6.29537 35.963 6.45587C35.9498 6.41042 35.9348 6.37072 35.9266 6.32916C35.8931 6.15954 35.8656 5.98806 35.8279 5.81996C35.809 5.73565 35.8172 5.67297 35.8645 5.60387C36.2405 5.05328 36.5599 4.45605 36.864 3.84667C36.8832 3.80815 36.9016 3.76878 36.9188 3.72891C36.9225 3.72046 36.9194 3.70796 36.9194 3.6789C36.5749 3.68532 36.2325 3.73939 35.8802 3.77757C35.8478 3.55659 35.8152 3.3476 35.7886 3.1376C35.7835 3.09773 35.7937 3.04569 35.8129 3.01241C36.2639 2.2334 36.5846 1.37887 36.8416 0.487172C36.8446 0.477035 36.8521 0.468757 36.8676 0.441895C37.0903 0.514035 37.3187 0.588033 37.5644 0.667607C37.2418 1.45287 36.9026 2.20671 36.5339 2.96443C36.5698 2.97288 36.5904 2.98234 36.6108 2.98166C36.8037 2.97642 36.9967 2.96679 37.1897 2.96443C37.265 2.96342 37.3083 2.92726 37.3432 2.84735C37.454 2.59359 37.5712 2.34389 37.6955 2.07155C37.8995 2.18069 38.0984 2.28712 38.3149 2.40285Z" fill="#FFD78E"/>
<path d="M35.547 15.7069C35.5827 15.7239 35.6073 15.7381 35.6336 15.7478C36.4998 16.0704 36.4751 17.1064 35.9958 17.5613C35.7212 17.8219 35.3923 17.9712 35.0159 17.9868C34.5249 18.0071 34.0327 17.9978 33.5408 17.9976C33.4232 17.9976 33.3913 17.9607 33.3834 17.8464C33.3806 17.8077 33.3825 17.7686 33.3825 17.7297C33.3825 16.4887 33.3825 15.2476 33.3825 14.0066C33.3825 13.9677 33.3804 13.9285 33.3835 13.8899C33.392 13.7858 33.4256 13.7455 33.5302 13.7455C34.0275 13.7457 34.5254 13.7424 35.0222 13.7587C35.1723 13.7637 35.3272 13.8119 35.4679 13.8687C36.3337 14.2183 36.2501 15.1843 35.703 15.5929C35.654 15.6295 35.6044 15.6651 35.547 15.707V15.7069ZM34.1273 17.3847C34.347 17.3847 34.5458 17.387 34.7447 17.3835C34.824 17.3822 34.9042 17.3728 34.9824 17.3585C35.2443 17.3104 35.4562 17.1979 35.5355 16.9277C35.6459 16.5515 35.4685 16.2309 35.0748 16.1621C34.8026 16.1145 34.5197 16.1238 34.2413 16.11C34.2044 16.1081 34.1668 16.1198 34.1271 16.1255V17.3845L34.1273 17.3847ZM34.1289 15.4854C34.3246 15.4854 34.5019 15.4929 34.6781 15.4833C34.8637 15.4732 35.0396 15.4225 35.1759 15.2896C35.3452 15.1244 35.3798 14.9229 35.3233 14.7039C35.2733 14.5101 35.117 14.4303 34.9358 14.3947C34.6721 14.3429 34.4048 14.3523 34.1289 14.3648V15.4855V15.4854Z" fill="#FFD78E"/>
<path d="M85.9455 15.7077C85.9857 15.727 86.0054 15.7387 86.0265 15.7466C86.901 16.0716 86.8841 17.1144 86.3756 17.5807C86.1019 17.8317 85.7754 17.9736 85.4052 17.9878C84.92 18.0063 84.4338 17.9982 83.9479 17.9977C83.8218 17.9977 83.7888 17.9591 83.7826 17.8364C83.7814 17.8142 83.7823 17.7918 83.7823 17.7696C83.7823 16.507 83.7823 15.2444 83.7823 13.9818C83.7823 13.9539 83.7809 13.926 83.7828 13.8983C83.7902 13.7891 83.8266 13.7512 83.9414 13.7476C84.067 13.7435 84.1928 13.7462 84.3186 13.7464C84.6272 13.7467 84.936 13.7467 85.2446 13.7479C85.4643 13.7487 85.676 13.7888 85.8782 13.8733C86.725 14.2272 86.6497 15.1795 86.1065 15.5907C86.0572 15.6279 86.0064 15.6634 85.9455 15.7077ZM84.5314 17.3822C84.8594 17.3787 85.178 17.4182 85.491 17.3331C85.7213 17.2705 85.8904 17.1383 85.9414 16.9011C86.021 16.5308 85.875 16.2207 85.4442 16.1562C85.1809 16.1168 84.9104 16.123 84.6428 16.1112C84.6058 16.1095 84.568 16.1222 84.5314 16.128V17.382V17.3822ZM84.5344 14.3672V15.483C84.7405 15.483 84.9339 15.492 85.1258 15.4802C85.2743 15.471 85.4157 15.4221 85.535 15.3281C85.7366 15.1693 85.7728 14.956 85.7282 14.7263C85.6891 14.5251 85.5305 14.4358 85.341 14.3983C85.0776 14.3462 84.811 14.3545 84.5342 14.3674L84.5344 14.3672Z" fill="#FFD78E"/>
<path d="M28.8794 16.1843C28.8794 16.2379 28.8794 16.2914 28.8794 16.3449C28.8794 16.8119 28.8794 17.2789 28.8794 17.7458C28.8794 17.7847 28.8819 17.8239 28.8782 17.8626C28.8693 17.9571 28.8377 17.9913 28.738 17.9948C28.5946 17.9998 28.4508 17.9993 28.3073 17.9955C28.1821 17.992 28.1483 17.9573 28.1469 17.8311C28.1442 17.5976 28.1461 17.3641 28.1461 17.1306C28.1461 16.0911 28.1461 15.0516 28.1461 14.0121C28.1461 13.9676 28.1456 13.9232 28.1469 13.8787C28.1494 13.7992 28.194 13.7525 28.2745 13.7506C28.4353 13.7471 28.5963 13.7475 28.757 13.7506C28.8301 13.7521 28.8725 13.7952 28.8775 13.8669C28.8805 13.9112 28.8796 13.9558 28.8796 14.0003C28.8796 14.4451 28.8796 14.8897 28.8796 15.3345C28.8796 15.3827 28.8796 15.4307 28.8796 15.5176C28.9412 15.4581 28.977 15.4272 29.0086 15.3923C29.4697 14.8817 29.9318 14.3719 30.3887 13.8577C30.4589 13.7787 30.5282 13.74 30.6376 13.746C30.7979 13.755 30.9592 13.7483 31.12 13.7483C31.1833 13.7483 31.2459 13.7431 31.2757 13.8195C31.3026 13.8889 31.254 13.9224 31.2164 13.9623C30.7019 14.5088 30.1868 15.0548 29.6721 15.6011C29.6181 15.6583 29.565 15.716 29.5004 15.7854C29.5437 15.8358 29.5812 15.8825 29.6221 15.9263C30.1873 16.5334 30.7536 17.1396 31.3175 17.7478C31.3632 17.797 31.4468 17.8339 31.4083 17.9271C31.3661 18.0293 31.2745 17.9933 31.2004 17.9953C31.034 17.9998 30.8667 17.9893 30.7009 17.9992C30.5841 18.0062 30.5113 17.9615 30.4388 17.8789C29.9846 17.3624 29.5259 16.8498 29.0684 16.3361C29.0201 16.2819 28.9698 16.2295 28.9205 16.1765C28.9069 16.1792 28.8932 16.1818 28.8796 16.1847L28.8794 16.1843Z" fill="#FFD78E"/>
<path d="M60.6303 16.4667C60.6303 16.595 60.6303 16.7 60.6303 16.805C60.6303 17.1384 60.6311 17.472 60.6297 17.8054C60.6291 17.9708 60.6011 17.9965 60.4273 17.9987C60.3116 18.0002 60.1959 18.0005 60.0805 17.9985C59.9196 17.9957 59.8948 17.9696 59.8912 17.8098C59.8906 17.7876 59.8912 17.7654 59.8912 17.743C59.8912 16.4979 59.8912 15.253 59.8912 14.0079C59.8912 13.9635 59.8903 13.9189 59.8927 13.8745C59.8969 13.7954 59.941 13.7527 60.0238 13.7489C60.0527 13.7476 60.0817 13.7477 60.1105 13.7477C60.4978 13.7477 60.8854 13.7405 61.2725 13.7512C61.4673 13.7566 61.6663 13.7749 61.8544 13.8211C62.5178 13.984 62.8775 14.4748 62.8326 15.1313C62.7885 15.7802 62.3375 16.2798 61.6557 16.419C61.4878 16.4532 61.3122 16.4572 61.1398 16.465C60.9792 16.4724 60.818 16.4665 60.6304 16.4665L60.6303 16.4667ZM60.6395 15.8437C60.9166 15.8556 61.1763 15.8648 61.4319 15.815C61.6865 15.7653 61.8978 15.6502 62.0032 15.4052C62.0763 15.2351 62.0762 15.0577 62.0413 14.8812C61.9963 14.6539 61.8523 14.5039 61.6236 14.4356C61.3039 14.3403 60.976 14.3635 60.6396 14.3707V15.8436L60.6395 15.8437Z" fill="#FFD78E"/>
<path d="M39.288 14.3727V15.5262C39.3525 15.5262 39.408 15.5262 39.4635 15.5262C39.8106 15.5262 40.1576 15.5257 40.5046 15.5266C40.6798 15.5269 40.7027 15.552 40.7041 15.7362C40.7047 15.8196 40.7059 15.9031 40.7036 15.9866C40.7 16.1151 40.6666 16.1516 40.5432 16.1528C40.2997 16.1551 40.0564 16.1536 39.8129 16.1536C39.6426 16.1536 39.4722 16.1536 39.2905 16.1536V17.3782C39.3507 17.3782 39.4062 17.3782 39.4617 17.3782C39.876 17.3782 40.2904 17.3775 40.7047 17.3785C40.8871 17.3788 40.9067 17.4017 40.9079 17.6019C40.9084 17.6854 40.9109 17.7691 40.9067 17.8523C40.9014 17.958 40.8704 17.9895 40.7751 17.9987C40.7546 18.0007 40.7338 17.9996 40.7129 17.9996C40.0811 17.9996 39.4492 17.9999 38.8174 17.9994C38.6373 17.9992 38.6185 17.9799 38.6185 17.7922C38.618 16.512 38.618 15.232 38.6185 13.9518C38.6185 13.7687 38.6381 13.7463 38.8028 13.7461C39.4139 13.7451 40.0251 13.7451 40.6363 13.7461C40.7936 13.7464 40.8179 13.7735 40.8205 13.9388C40.8219 14.0278 40.8232 14.117 40.8201 14.206C40.816 14.3219 40.7765 14.3643 40.6699 14.3722C40.6338 14.3748 40.5974 14.3728 40.5612 14.3728C40.1986 14.3728 39.8361 14.3728 39.4735 14.3728H39.2882L39.288 14.3727Z" fill="#FFD78E"/>
<path d="M51.475 13.7454C51.8776 14.8459 52.2758 15.9342 52.6738 17.0226L52.7057 17.0219C53.1108 15.9374 53.5156 14.8528 53.9287 13.7469C54.1323 13.7469 54.3407 13.7432 54.5489 13.7487C54.6265 13.7507 54.6669 13.815 54.6512 13.8897C54.6444 13.922 54.6291 13.9528 54.6169 13.9839C54.1098 15.284 53.6024 16.5839 53.0949 17.8839C53.0807 17.92 53.0642 17.9554 53.0449 17.9999H52.3046C52.2852 17.9545 52.262 17.9048 52.2424 17.8539C51.7519 16.5714 51.2618 15.2889 50.7717 14.0064C50.7677 13.996 50.7647 13.9851 50.7607 13.9747C50.6918 13.7879 50.721 13.747 50.9275 13.7459C51.1085 13.7449 51.2894 13.7457 51.4746 13.7457L51.475 13.7454Z" fill="#FFD78E"/>
<path d="M44.0136 14.3731C43.939 14.3731 43.8837 14.3731 43.8283 14.3731C43.5707 14.3731 43.313 14.3744 43.0555 14.3724C42.9001 14.3712 42.876 14.3435 42.8741 14.1778C42.873 14.0833 42.8713 13.9886 42.8749 13.8942C42.8789 13.788 42.9089 13.756 43.0035 13.7469C43.0341 13.7441 43.0652 13.7459 43.0962 13.7459C43.9309 13.7459 44.7657 13.7459 45.6004 13.7459C45.6365 13.7459 45.6727 13.7444 45.7086 13.7483C45.7739 13.7551 45.8137 13.7949 45.8151 13.8666C45.8176 13.9945 45.821 14.1227 45.8143 14.2502C45.8095 14.3419 45.7646 14.3712 45.6453 14.3722C45.3825 14.3742 45.1198 14.3729 44.857 14.3729C44.8017 14.3729 44.7463 14.3729 44.673 14.3729V14.5886C44.673 15.634 44.673 16.6794 44.673 17.7249C44.673 17.7694 44.6752 17.814 44.6721 17.8582C44.6656 17.9545 44.6372 17.9924 44.5514 17.9958C44.4124 18.0013 44.2729 18.0013 44.1341 17.9958C44.0479 17.9923 44.0212 17.9552 44.0147 17.8572C44.0117 17.813 44.0137 17.7682 44.0137 17.7238C44.0137 16.6784 44.0137 15.633 44.0137 14.5876C44.0137 14.5225 44.0137 14.4574 44.0137 14.3729L44.0136 14.3731Z" fill="#FFD78E"/>
<path d="M74.3096 17.3778H74.4985C74.8942 17.3778 75.2899 17.3778 75.6857 17.3778C75.7226 17.3778 75.7598 17.3755 75.7964 17.3795C75.8853 17.3892 75.92 17.4224 75.9237 17.5151C75.9284 17.6316 75.9284 17.7489 75.9237 17.8654C75.9199 17.9585 75.8855 17.9894 75.7949 17.9984C75.7687 18.001 75.7421 17.9994 75.7158 17.9994C75.0933 17.9994 74.4706 17.9994 73.8481 17.9994C73.8164 17.9994 73.7847 18 73.7532 17.9977C73.6774 17.9922 73.6394 17.9476 73.6373 17.8685C73.6364 17.8351 73.6365 17.8017 73.6365 17.7684C73.6365 16.5057 73.6365 15.2431 73.6365 13.9804C73.6365 13.9415 73.6356 13.9024 73.6381 13.8636C73.6429 13.7918 73.6815 13.7492 73.749 13.7477C73.8968 13.7447 74.0445 13.7444 74.1922 13.7477C74.2671 13.7494 74.3066 13.7968 74.3088 13.8762C74.3101 13.9206 74.3096 13.9652 74.3096 14.0096C74.3096 15.0609 74.3096 16.1123 74.3096 17.1635V17.3781V17.3778Z" fill="#FFD78E"/>
<path d="M56.6188 15.8551C56.6188 15.2379 56.6188 14.6208 56.6188 14.0036C56.6188 13.9647 56.6169 13.9256 56.6196 13.8869C56.6262 13.7891 56.653 13.752 56.7385 13.7487C56.8768 13.7432 57.0153 13.7457 57.1538 13.748C57.2258 13.7492 57.2679 13.7911 57.2711 13.8717C57.2727 13.9106 57.2722 13.9495 57.2722 13.9884C57.2722 15.2449 57.2722 16.5015 57.2722 17.758C57.2722 17.7914 57.2737 17.825 57.2714 17.858C57.2647 17.9552 57.2374 17.9931 57.1524 17.9966C57.014 18.0021 56.8756 17.9996 56.7371 17.9972C56.6649 17.9961 56.623 17.9538 56.6199 17.8732C56.6182 17.8288 56.6186 17.7842 56.6186 17.7398C56.6186 17.1115 56.6186 16.4833 56.6186 15.8549L56.6188 15.8551Z" fill="#FFD78E"/>
<path d="M50.1406 10.7999C49.998 10.5507 49.8706 10.3279 49.7455 10.1089C50.9263 9.79513 52.1041 9.48218 53.3037 9.16357C53.4174 9.3662 53.5393 9.584 53.6728 9.82195C52.4932 10.1861 51.3199 10.507 50.1406 10.7999Z" fill="#FFD78E"/>
<path d="M68.0727 9.73414C66.6822 10.1766 65.3039 10.5241 63.8875 10.7999C63.7552 10.5626 63.6255 10.3299 63.4909 10.0885C63.8894 10.0146 64.2668 9.94593 64.6436 9.87419C65.5873 9.69449 66.5158 9.45542 67.4341 9.17721C67.541 9.14483 67.6274 9.17012 67.6933 9.25307C67.8141 9.40547 67.9343 9.55857 68.0727 9.73397V9.73414Z" fill="#FFD78E"/>
<path d="M55.6364 9.7856C55.7561 9.57741 55.8711 9.37753 55.9942 9.16357C57.2984 9.43992 58.5896 9.75102 59.8909 10.0957C59.8007 10.3391 59.7171 10.5653 59.6302 10.7999C58.2994 10.4621 56.9786 10.1265 55.6364 9.78577V9.7856Z" fill="#FFD78E"/>
<path d="M74.2909 10.1304C74.1782 10.3708 74.0783 10.5842 73.9771 10.7999C72.5539 10.448 71.1421 10.0989 69.7091 9.74449C69.8061 9.55103 69.9003 9.36295 70.0002 9.16357C71.4374 9.44934 72.8567 9.76587 74.2909 10.1302V10.1304Z" fill="#FFD78E"/>
<path d="M64.8562 4.9089C64.7223 4.6862 64.5998 4.48252 64.4727 4.27087C65.3356 3.94098 66.1984 3.61126 67.0841 3.27271C67.1879 3.45701 67.2977 3.65237 67.4182 3.86657C66.5643 4.23859 65.7151 4.57918 64.8562 4.90907V4.9089Z" fill="#FFD78E"/>
<path d="M85.1552 3.92745C84.6914 4.4037 84.2422 4.86539 83.7818 5.33825C83.9662 5.52492 84.1435 5.70441 84.3279 5.89088C84.8169 5.43258 85.2831 4.97528 85.7454 4.49125C85.5391 4.29401 85.3517 4.11491 85.1553 3.92725L85.1552 3.92745Z" fill="#FFD78E"/>
<path d="M80.1818 4.59025C80.3731 4.47751 80.5518 4.37216 80.7509 4.25464C81.2418 4.54242 81.6913 4.85917 82.1455 5.18672C81.9134 5.31694 81.6969 5.43856 81.4738 5.56373C81.0455 5.24083 80.6225 4.9223 80.1818 4.59025Z" fill="#FFD78E"/>
<path d="M85.1553 3.92725C85.3517 4.11491 85.5391 4.29401 85.7454 4.49125C85.2831 4.97528 84.8169 5.43258 84.3279 5.89088C84.1435 5.70421 83.9664 5.52492 83.7818 5.33825C84.2422 4.86519 84.6916 4.4037 85.1552 3.92745L85.1553 3.92725Z" fill="#FFD78E"/>
</svg>
