<svg width="17" height="17" viewBox="0 0 17 17" fill="none" xmlns="http://www.w3.org/2000/svg">
<path d="M16.6907 8.19428V9.10624C16.6848 9.16878 16.6777 9.23121 16.6733 9.29387C16.6437 9.7233 16.5784 10.1476 16.4765 10.5655C16.0028 12.5058 14.9797 14.0932 13.3905 15.3034C12.0174 16.349 10.4575 16.9025 8.73491 16.9904C8.39315 17.0079 8.04994 17.0026 7.7074 16.9747C7.26158 16.9383 6.82089 16.8729 6.38709 16.765C4.60183 16.3211 3.10936 15.4012 1.93295 13.9863C0.73328 12.5434 0.101839 10.874 0.00869172 9.00175C-0.00733357 8.67836 -0.000767648 8.35386 0.0248283 8.02981C0.0572127 7.62106 0.113858 7.21644 0.206003 6.81727C0.609084 5.07213 1.4759 3.59864 2.81156 2.40602C3.75694 1.56195 4.84499 0.971034 6.06347 0.621941C6.56315 0.478831 7.07184 0.382794 7.58999 0.33817C7.70239 0.328488 7.81479 0.319029 7.92719 0.30957C8.20897 0.30957 8.49063 0.30957 8.77241 0.30957C8.7851 0.311907 8.79778 0.315691 8.81058 0.316247C9.19786 0.334498 9.58135 0.383128 9.96118 0.460136C11.8027 0.833378 13.3526 1.7193 14.6029 3.12068C15.435 4.05323 16.0194 5.12666 16.3693 6.32662C16.5169 6.83274 16.6159 7.34842 16.6622 7.8739C16.6715 7.98073 16.6813 8.08756 16.6909 8.19428H16.6907ZM15.7737 8.65243C15.752 4.48534 12.4024 1.23678 8.36032 1.23244C4.25873 1.22799 0.936601 4.5421 0.931704 8.6442C0.926919 12.6874 4.17182 16.0656 8.34652 16.0691C12.4602 16.0725 15.7515 12.7719 15.7737 8.65243V8.65243Z" fill="#FFD78E"/>
<path d="M8.71931 3.58226C9.58453 3.57761 10.3291 3.64245 11.0662 3.78032C11.4002 3.84283 11.7308 3.92097 12.0589 4.00952C12.7391 4.19317 13.3908 4.44809 14.0247 4.74867C14.0717 4.77094 14.0831 4.79245 14.0641 4.84132C13.4922 6.31684 12.7517 7.70324 11.7768 8.96563C11.4198 9.42791 11.0272 9.85982 10.5892 10.2513C10.4806 10.3484 10.5057 10.3413 10.4064 10.2559C10.1074 9.99969 9.8227 9.72993 9.58362 9.41782C9.5098 9.32151 9.44642 9.21921 9.39304 9.11048C9.36896 9.06139 9.37544 9.02902 9.41417 8.9889C10.0436 8.33543 10.6218 7.64162 11.1283 6.89228C11.366 6.5405 11.5815 6.17641 11.7586 5.79149C11.788 5.72743 11.7868 5.72399 11.7172 5.70449C11.2951 5.58623 10.8657 5.50144 10.4323 5.43472C10.0662 5.37842 9.69822 5.33819 9.32853 5.31535C8.92091 5.2902 8.51271 5.28255 8.10395 5.2974C7.6501 5.3138 7.19897 5.3537 6.75058 5.42331C5.90591 5.55431 5.09111 5.78362 4.31062 6.12687C4.25769 6.15015 4.25008 6.17941 4.25769 6.2305C4.39682 7.16537 4.69768 8.05281 5.08918 8.91276C5.65207 10.1489 6.40485 11.2662 7.31959 12.2804C8.10281 13.1488 8.98349 13.9122 9.94593 14.5865C9.95513 14.5929 9.96388 14.6002 9.97376 14.6057C10.021 14.6315 10.0114 14.653 9.97376 14.682C9.62644 14.9497 9.28015 15.2186 8.93374 15.4872C8.85969 15.5446 8.78348 15.5997 8.71283 15.6609C8.66854 15.6993 8.63458 15.7001 8.58438 15.669C8.3286 15.5104 8.08351 15.3377 7.84534 15.1552C6.72877 14.2998 5.7912 13.2821 4.99048 12.1422C3.93411 10.6384 3.18814 8.99599 2.71055 7.23597C2.5344 6.58683 2.39742 5.92926 2.29373 5.26526C2.28442 5.20585 2.2977 5.17349 2.35517 5.14379C3.1384 4.7388 3.95978 4.42648 4.80717 4.17677C5.53213 3.96309 6.26981 3.80471 7.01998 3.70318C7.33436 3.66062 7.6501 3.63059 7.96698 3.60898C8.25592 3.58925 8.54497 3.58747 8.71942 3.58249L8.71931 3.58226Z" fill="#FFD78E"/>
<path d="M14.7273 5.21777C14.712 5.45289 14.6765 5.68492 14.6374 5.9164C14.5284 6.56215 14.3794 7.1983 14.2014 7.82805C13.9323 8.78001 13.5797 9.69886 13.133 10.58C12.7486 11.3383 12.2946 12.0509 11.7525 12.7049C11.4576 13.0605 11.1366 13.3901 10.7925 13.6972C10.7513 13.734 10.7223 13.7371 10.6762 13.7036C10.1759 13.3394 9.68779 12.9594 9.21771 12.5557C8.82546 12.2187 8.44217 11.872 8.08508 11.4968C7.89338 11.2955 7.71402 11.083 7.54841 10.8588C7.52253 10.8237 7.51697 10.7993 7.5519 10.7654C7.92853 10.4004 8.30396 10.0341 8.67907 9.66762C8.70527 9.64201 8.72361 9.63782 8.74992 9.66861C9.05876 10.0303 9.37786 10.3828 9.70078 10.7316C9.9392 10.9893 10.1781 11.2468 10.4435 11.4772C10.5048 11.5305 10.5082 11.5316 10.5689 11.4732C10.7757 11.2742 10.9737 11.0662 11.1683 10.8551C11.4237 10.5783 11.6728 10.2957 11.9146 10.0066C12.2718 9.57964 12.6054 9.13457 12.9265 8.67945C13.2785 8.18051 13.6028 7.66402 13.8919 7.12545C14.2168 6.52043 14.5053 5.89863 14.7166 5.2425C14.7194 5.234 14.7236 5.22594 14.7272 5.21777H14.7273Z" fill="#FFD78E"/>
</svg>
