<svg width="32" height="32" viewBox="0 0 32 32" fill="none" xmlns="http://www.w3.org/2000/svg">
<g filter="url(#filter0_f_692_8729)">
<circle cx="15.9496" cy="16.0402" r="5" fill="#FFD78E"/>
</g>
<circle cx="15.9496" cy="16.0401" r="3" fill="#FFE9AF"/>
<circle cx="16.0001" cy="15.8892" r="9" fill="#120E0A"/>
<path d="M16.4032 10.4189C17.3363 10.4139 18.1394 10.4838 18.9343 10.6325C19.2944 10.6999 19.651 10.7842 20.0048 10.8797C20.7384 11.0777 21.4412 11.3526 22.1248 11.6768C22.1755 11.7008 22.1878 11.724 22.1673 11.7767C21.5506 13.3679 20.752 14.8631 19.7006 16.2245C19.3156 16.723 18.8922 17.1888 18.4199 17.611C18.4103 17.6195 18.4016 17.6274 18.3938 17.6345C18.3535 17.671 18.3349 17.6879 18.3169 17.6872C18.3015 17.6867 18.2866 17.6731 18.2588 17.648C18.2487 17.6389 18.2368 17.6282 18.2227 17.616C17.9003 17.3396 17.5932 17.0487 17.3354 16.7121C17.2557 16.6083 17.1874 16.4979 17.1298 16.3807C17.1039 16.3277 17.1108 16.2928 17.1526 16.2496C17.8314 15.5448 18.455 14.7966 19.0012 13.9885C19.2575 13.6091 19.49 13.2165 19.681 12.8014C19.7127 12.7323 19.7113 12.7286 19.6363 12.7076C19.1811 12.58 18.718 12.4886 18.2506 12.4166C17.8558 12.3559 17.459 12.3125 17.0603 12.2879C16.6207 12.2608 16.1804 12.2525 15.7396 12.2685C15.2502 12.2862 14.7636 12.3293 14.2801 12.4043C13.3691 12.5456 12.4904 12.7929 11.6487 13.1631C11.5916 13.1882 11.5834 13.2197 11.5916 13.2748C11.7417 14.283 12.0661 15.2401 12.4884 16.1675C13.0954 17.5005 13.9072 18.7055 14.8937 19.7992C15.7384 20.7357 16.6881 21.559 17.7261 22.2862C17.7292 22.2883 17.7322 22.2906 17.7352 22.2928C17.742 22.2978 17.7487 22.3028 17.7561 22.3069C17.8071 22.3347 17.7966 22.3579 17.7561 22.3892C17.4315 22.6394 17.1077 22.8906 16.7839 23.1417L16.6345 23.2576C16.6123 23.2748 16.59 23.2918 16.5676 23.3088C16.5095 23.353 16.4513 23.3972 16.3963 23.4449C16.3485 23.4862 16.3119 23.4872 16.2577 23.4536C15.9819 23.2826 15.7176 23.0963 15.4607 22.8995C14.2566 21.977 13.2454 20.8795 12.3819 19.6502C11.2427 18.0285 10.4382 16.2572 9.92313 14.3592C9.73315 13.6591 9.58544 12.95 9.47361 12.2339C9.46356 12.1698 9.47789 12.1349 9.53987 12.1029C10.3845 11.6661 11.2704 11.3293 12.1842 11.06C12.966 10.8296 13.7616 10.6588 14.5706 10.5493C14.9097 10.5034 15.2502 10.471 15.5919 10.4477C15.8293 10.4315 16.0668 10.4265 16.2496 10.4227C16.3067 10.4215 16.3585 10.4202 16.4032 10.4189Z" fill="url(#paint0_linear_692_8729)"/>
<path d="M22.7856 12.9368C22.8277 12.6871 22.866 12.4369 22.8826 12.1834C22.8815 12.1859 22.8802 12.1884 22.879 12.191C22.8761 12.1972 22.8732 12.2035 22.8711 12.21C22.6431 12.9176 22.332 13.5882 21.9816 14.2407C21.6698 14.8215 21.3201 15.3785 20.9405 15.9165C20.5942 16.4074 20.2344 16.8873 19.8492 17.3478C19.5885 17.6596 19.3198 17.9643 19.0444 18.2629C18.8345 18.4905 18.6209 18.7148 18.3979 18.9294C18.3325 18.9924 18.3288 18.9912 18.2627 18.9337C17.9765 18.6852 17.7189 18.4075 17.4617 18.1297C17.1135 17.7535 16.7693 17.3734 16.4363 16.9833C16.4079 16.9501 16.3881 16.9546 16.3599 16.9822C15.9553 17.3774 15.5505 17.7724 15.1443 18.1661C15.1066 18.2026 15.1126 18.2289 15.1405 18.2668C15.3191 18.5086 15.5125 18.7377 15.7193 18.9549C16.1044 19.3595 16.5177 19.7334 16.9408 20.0968C17.4477 20.5322 17.9741 20.9419 18.5137 21.3348C18.5633 21.3708 18.5947 21.3675 18.6391 21.3279C19.0101 20.9967 19.3564 20.6412 19.6744 20.2577C20.2591 19.5525 20.7486 18.7839 21.1632 17.9661C21.6449 17.0159 22.0252 16.025 22.3154 14.9984C22.5074 14.3192 22.6681 13.6332 22.7856 12.9368Z" fill="url(#paint1_linear_692_8729)"/>
<path fill-rule="evenodd" clip-rule="evenodd" d="M25.0001 15.3923L25.0001 16.3758C24.9981 16.3965 24.996 16.4171 24.994 16.4377C24.9893 16.4845 24.9846 16.5313 24.9813 16.5782C24.9494 17.0413 24.879 17.4989 24.769 17.9495C24.2582 20.042 23.1548 21.7539 21.441 23.059C19.9602 24.1866 18.2779 24.7835 16.4202 24.8783C16.0516 24.8972 15.6815 24.8915 15.3121 24.8614C14.8313 24.8222 14.356 24.7516 13.8882 24.6353C11.9629 24.1566 10.3533 23.1645 9.08464 21.6387C7.79086 20.0826 7.10989 18.2822 7.00944 16.2631C6.99215 15.9144 6.99923 15.5644 7.02684 15.215C7.06176 14.7742 7.12285 14.3378 7.22222 13.9073C7.65692 12.0253 8.59174 10.4363 10.0322 9.1501C11.0517 8.23982 12.2251 7.60256 13.5392 7.22609C14.0781 7.07176 14.6267 6.96819 15.1855 6.92006C15.3067 6.90962 15.4279 6.89942 15.5491 6.88922L16.4606 6.88922C16.4648 6.89 16.4691 6.89092 16.4733 6.89185C16.4828 6.89392 16.4922 6.89601 16.5018 6.89642C16.9195 6.9161 17.333 6.96855 17.7427 7.0516C19.7287 7.45411 21.4002 8.40952 22.7485 9.92081C23.6459 10.9265 24.2761 12.0841 24.6535 13.3782C24.8126 13.924 24.9194 14.4801 24.9693 15.0468C24.9762 15.1247 24.9832 15.2027 24.9902 15.2806L25.0001 15.3923ZM24.0111 15.8864C23.9877 11.3925 20.3753 7.88915 16.0162 7.88447C11.5929 7.87967 8.01013 11.4537 8.00485 15.8775C7.99969 20.2379 11.4991 23.8811 16.0013 23.8848C20.4377 23.8885 23.9872 20.329 24.0111 15.8864Z" fill="url(#paint2_linear_692_8729)"/>
<defs>
<filter id="filter0_f_692_8729" x="2.94962" y="3.04016" width="26" height="26" filterUnits="userSpaceOnUse" color-interpolation-filters="sRGB">
<feFlood flood-opacity="0" result="BackgroundImageFix"/>
<feBlend mode="normal" in="SourceGraphic" in2="BackgroundImageFix" result="shape"/>
<feGaussianBlur stdDeviation="4" result="effect1_foregroundBlur_692_8729"/>
</filter>
<linearGradient id="paint0_linear_692_8729" x1="23.1251" y1="21.8892" x2="10.0001" y2="9.70172" gradientUnits="userSpaceOnUse">
<stop stop-color="#F6E0B0"/>
<stop offset="0.505208" stop-color="#DFB772"/>
<stop offset="1" stop-color="#F2D9A6"/>
</linearGradient>
<linearGradient id="paint1_linear_692_8729" x1="23.1251" y1="21.8892" x2="10.0001" y2="9.70172" gradientUnits="userSpaceOnUse">
<stop stop-color="#F6E0B0"/>
<stop offset="0.505208" stop-color="#DFB772"/>
<stop offset="1" stop-color="#F2D9A6"/>
</linearGradient>
<linearGradient id="paint2_linear_692_8729" x1="23.1251" y1="21.8892" x2="10.0001" y2="9.70172" gradientUnits="userSpaceOnUse">
<stop stop-color="#F6E0B0"/>
<stop offset="0.505208" stop-color="#DFB772"/>
<stop offset="1" stop-color="#F2D9A6"/>
</linearGradient>
</defs>
</svg>
